<?xml version="1.0" encoding="UTF-8" standalone="no"?>
<!-- Uploaded to: SVG Repo, www.svgrepo.com, Generator: SVG Repo Mixer Tools -->

<svg
   version="1.1"
   id="Layer_1"
   viewBox="0 0 999.99815 324.72876"
   xml:space="preserve"
   sodipodi:docname="logo.svg"
   inkscape:version="1.2.2 (b0a8486541, 2022-12-01)"
   width="999.99817"
   height="324.72876"
   inkscape:export-filename="logo.png"
   inkscape:export-xdpi="150"
   inkscape:export-ydpi="150"
   xmlns:inkscape="http://www.inkscape.org/namespaces/inkscape"
   xmlns:sodipodi="http://sodipodi.sourceforge.net/DTD/sodipodi-0.dtd"
   xmlns="http://www.w3.org/2000/svg"
   xmlns:svg="http://www.w3.org/2000/svg"><defs
   id="defs39" /><sodipodi:namedview
   id="namedview37"
   pagecolor="#ffffff"
   bordercolor="#666666"
   borderopacity="1.0"
   inkscape:showpageshadow="2"
   inkscape:pageopacity="0"
   inkscape:pagecheckerboard="0"
   inkscape:deskcolor="#d1d1d1"
   showgrid="false"
   inkscape:zoom="0.9218804"
   inkscape:cx="510.91226"
   inkscape:cy="161.62617"
   inkscape:window-width="1834"
   inkscape:window-height="1087"
   inkscape:window-x="0"
   inkscape:window-y="0"
   inkscape:window-maximized="0"
   inkscape:current-layer="Layer_1"
   showguides="true"><sodipodi:guide
     position="657.52163,114.74853"
     orientation="1,0"
     id="guide319"
     inkscape:locked="false" /><sodipodi:guide
     position="396.28587,135.69756"
     orientation="1,0"
     id="guide321"
     inkscape:locked="false" /><sodipodi:guide
     position="479.39167,150.35277"
     orientation="0,-1"
     id="guide323"
     inkscape:locked="false" /></sodipodi:namedview>







<g
   id="g341"
   transform="translate(5.5122375e-5,-40.594578)"><g
     id="g1739"
     transform="matrix(1.2129656,0,0,1.2129656,1691.0444,-1098.33)"><polygon
       style="fill:#37bc9b"
       points="21.328,309.338 490.653,309.338 373.325,117.331 138.656,117.331 "
       id="polygon2"
       transform="matrix(0.42117096,0,0,0.42117096,-1067.701,934.469)" /><rect
       x="-1009.3019"
       y="938.95868"
       style="fill:#013243;fill-opacity:1;stroke-width:0.421171"
       width="98.836189"
       height="53.909882"
       id="rect12" /><path
       style="fill:#48cfad;stroke-width:0.421171"
       d="m -852.06274,1078.2307 c 0,2.4743 -2.01362,4.488 -4.49474,4.488 H -1063.213 c -2.4811,0 -4.488,-2.0137 -4.488,-4.488 v -17.979 c 0,-2.4744 2.0069,-4.488 4.488,-4.488 h 206.65552 c 2.48112,0 4.49474,2.0136 4.49474,4.488 z"
       id="path14" /><g
       id="g20"
       transform="matrix(0.42117096,0,0,0.42117096,-1067.701,934.469)">
	<path
   style="fill:#37bc9b"
   d="m 479.997,319.994 c 0,5.875 -4.781,10.656 -10.672,10.656 -5.891,0 -10.672,-4.781 -10.672,-10.656 0,-5.906 4.781,-10.656 10.672,-10.656 5.891,0 10.672,4.75 10.672,10.656 z"
   id="path16" />
	<path
   style="fill:#37bc9b"
   d="m 53.328,319.994 c 0,5.875 -4.781,10.656 -10.672,10.656 -5.891,0 -10.656,-4.781 -10.656,-10.656 0,-5.906 4.766,-10.656 10.656,-10.656 5.89,0 10.672,4.75 10.672,10.656 z"
   id="path18" />
</g><g
       id="g32"
       transform="matrix(0.42117096,0,0,0.42117096,-1067.701,934.469)">
	<path
   style="fill:#e6e9ed"
   d="m 309.327,309.338 c -5.891,0 -10.672,4.75 -10.672,10.656 0,5.875 4.781,10.656 10.672,10.656 5.891,0 10.672,-4.781 10.672,-10.656 0,-5.906 -4.781,-10.656 -10.672,-10.656 z"
   id="path22" />
	<path
   style="fill:#e6e9ed"
   d="m 351.997,309.338 c -5.889,0 -10.67,4.75 -10.67,10.656 0,5.875 4.781,10.656 10.67,10.656 5.891,0 10.656,-4.781 10.656,-10.656 0,-5.906 -4.765,-10.656 -10.656,-10.656 z"
   id="path24" />
	<path
   style="fill:#e6e9ed"
   d="m 159.999,309.338 c -5.891,0 -10.672,4.75 -10.672,10.656 0,5.875 4.781,10.656 10.672,10.656 5.891,0 10.656,-4.781 10.656,-10.656 0.001,-5.906 -4.765,-10.656 -10.656,-10.656 z"
   id="path26" />
	<path
   style="fill:#e6e9ed"
   d="m 202.655,309.338 c -5.891,0 -10.656,4.75 -10.656,10.656 0,5.875 4.766,10.656 10.656,10.656 5.89,0 10.672,-4.781 10.672,-10.656 0,-5.906 -4.781,-10.656 -10.672,-10.656 z"
   id="path28" />
	<path
   style="fill:#e6e9ed"
   d="m 266.655,309.338 h -21.328 c -5.891,0 -10.672,4.75 -10.672,10.656 0,5.875 4.781,10.656 10.672,10.656 h 21.328 c 5.891,0 10.672,-4.781 10.672,-10.656 0,-5.906 -4.781,-10.656 -10.672,-10.656 z"
   id="path30" />
</g><path
       style="fill:#656d78;stroke-width:0.421171"
       d="m -905.97262,983.88542 h -107.81888 v 0 0 c -2.4812,0 -4.4948,2.0073 -4.4948,4.49473 0,2.47438 2.0136,4.488 4.4948,4.488 v 0 0 h 107.81888 c 2.48112,0 4.488,-2.01362 4.488,-4.488 0,-2.48743 -2.00688,-4.49473 -4.488,-4.49473 z"
       id="path34" /></g><text
     xml:space="preserve"
     style="font-style:normal;font-weight:normal;font-size:190.803px;line-height:1.25;font-family:sans-serif;fill:#013243;fill-opacity:1;stroke:none;stroke-width:1.78879"
     x="-15.264295"
     y="363.03369"
     id="text376"><tspan
       sodipodi:role="line"
       id="tspan374"
       x="-15.264295"
       y="363.03369"
       style="font-style:normal;font-variant:normal;font-weight:normal;font-stretch:normal;font-size:190.803px;font-family:Ubuntu;-inkscape-font-specification:Ubuntu;fill:#013243;fill-opacity:1;stroke-width:1.78879">randExtract</tspan></text></g></svg>
