<?xml version="1.0" encoding="UTF-8" standalone="no"?>
<!-- Uploaded to: SVG Repo, www.svgrepo.com, Generator: SVG Repo Mixer Tools -->

<svg
   version="1.1"
   id="Layer_1"
   viewBox="0 0 999.99815 324.72876"
   xml:space="preserve"
   sodipodi:docname="logo-dark-mode.svg"
   inkscape:version="1.2.2 (b0a8486541, 2022-12-01)"
   width="999.99817"
   height="324.72876"
   inkscape:export-filename="logo-dark-mode.png"
   inkscape:export-xdpi="150"
   inkscape:export-ydpi="150"
   xmlns:inkscape="http://www.inkscape.org/namespaces/inkscape"
   xmlns:sodipodi="http://sodipodi.sourceforge.net/DTD/sodipodi-0.dtd"
   xmlns="http://www.w3.org/2000/svg"
   xmlns:svg="http://www.w3.org/2000/svg"><defs
   id="defs39" /><sodipodi:namedview
   id="namedview37"
   pagecolor="#000000"
   bordercolor="#666666"
   borderopacity="1.0"
   inkscape:showpageshadow="2"
   inkscape:pageopacity="0"
   inkscape:pagecheckerboard="0"
   inkscape:deskcolor="#d1d1d1"
   showgrid="false"
   inkscape:zoom="0.9218804"
   inkscape:cx="557.01369"
   inkscape:cy="232.13423"
   inkscape:window-width="1834"
   inkscape:window-height="1087"
   inkscape:window-x="0"
   inkscape:window-y="0"
   inkscape:window-maximized="0"
   inkscape:current-layer="Layer_1"
   showguides="true"><sodipodi:guide
     position="657.52163,114.74853"
     orientation="1,0"
     id="guide319"
     inkscape:locked="false" /><sodipodi:guide
     position="396.28587,135.69756"
     orientation="1,0"
     id="guide321"
     inkscape:locked="false" /><sodipodi:guide
     position="479.39167,150.35277"
     orientation="0,-1"
     id="guide323"
     inkscape:locked="false" /></sodipodi:namedview>







<g
   id="g920"><g
     id="g902"><polygon
       style="fill:#37bc9b"
       points="21.328,309.338 490.653,309.338 373.325,117.331 138.656,117.331 "
       id="polygon2"
       transform="matrix(0.51086589,0,0,0.51086589,395.95992,-5.4458487)" /><rect
       x="466.79605"
       y="-2.2309912e-05"
       style="fill:#cdcdcd;fill-opacity:1;stroke-width:0.510866"
       width="119.8849"
       height="65.390831"
       id="rect12" /><path
       style="fill:#48cfad;stroke-width:0.510866"
       d="m 657.52171,168.93215 c 0,3.00124 -2.44245,5.44379 -5.45197,5.44379 H 401.40371 c -3.00949,0 -5.44379,-2.44255 -5.44379,-5.44379 v -21.80791 c 0,-3.00136 2.4343,-5.44379 5.44379,-5.44379 h 250.66603 c 3.00952,0 5.45197,2.44243 5.45197,5.44379 z"
       id="path14" /><g
       id="g20"
       transform="matrix(0.51086589,0,0,0.51086589,395.95992,-5.4458487)">
	<path
   style="fill:#37bc9b"
   d="m 479.997,319.994 c 0,5.875 -4.781,10.656 -10.672,10.656 -5.891,0 -10.672,-4.781 -10.672,-10.656 0,-5.906 4.781,-10.656 10.672,-10.656 5.891,0 10.672,4.75 10.672,10.656 z"
   id="path16" />
	<path
   style="fill:#37bc9b"
   d="m 53.328,319.994 c 0,5.875 -4.781,10.656 -10.672,10.656 -5.891,0 -10.656,-4.781 -10.656,-10.656 0,-5.906 4.766,-10.656 10.656,-10.656 5.89,0 10.672,4.75 10.672,10.656 z"
   id="path18" />
</g><g
       id="g32"
       transform="matrix(0.51086589,0,0,0.51086589,395.95992,-5.4458487)">
	<path
   style="fill:#e6e9ed"
   d="m 309.327,309.338 c -5.891,0 -10.672,4.75 -10.672,10.656 0,5.875 4.781,10.656 10.672,10.656 5.891,0 10.672,-4.781 10.672,-10.656 0,-5.906 -4.781,-10.656 -10.672,-10.656 z"
   id="path22" />
	<path
   style="fill:#e6e9ed"
   d="m 351.997,309.338 c -5.889,0 -10.67,4.75 -10.67,10.656 0,5.875 4.781,10.656 10.67,10.656 5.891,0 10.656,-4.781 10.656,-10.656 0,-5.906 -4.765,-10.656 -10.656,-10.656 z"
   id="path24" />
	<path
   style="fill:#e6e9ed"
   d="m 159.999,309.338 c -5.891,0 -10.672,4.75 -10.672,10.656 0,5.875 4.781,10.656 10.672,10.656 5.891,0 10.656,-4.781 10.656,-10.656 0.001,-5.906 -4.765,-10.656 -10.656,-10.656 z"
   id="path26" />
	<path
   style="fill:#e6e9ed"
   d="m 202.655,309.338 c -5.891,0 -10.656,4.75 -10.656,10.656 0,5.875 4.766,10.656 10.656,10.656 5.89,0 10.672,-4.781 10.672,-10.656 0,-5.906 -4.781,-10.656 -10.672,-10.656 z"
   id="path28" />
	<path
   style="fill:#e6e9ed"
   d="m 266.655,309.338 h -21.328 c -5.891,0 -10.672,4.75 -10.672,10.656 0,5.875 4.781,10.656 10.672,10.656 h 21.328 c 5.891,0 10.672,-4.781 10.672,-10.656 0,-5.906 -4.781,-10.656 -10.672,-10.656 z"
   id="path30" />
</g><path
       style="fill:#656d78;stroke-width:0.510866"
       d="m 592.13088,54.494569 h -130.7806 v 0 0 c -3.00961,0 -5.45203,2.434786 -5.45203,5.451953 0,3.001337 2.44242,5.443789 5.45203,5.443789 v 0 0 h 130.7806 c 3.00951,0 5.44379,-2.442452 5.44379,-5.443789 0,-3.017167 -2.43428,-5.451953 -5.44379,-5.451953 z"
       id="path34" /></g><text
     xml:space="preserve"
     style="font-style:normal;font-weight:normal;font-size:190.803px;line-height:1.25;font-family:sans-serif;fill:#cdcdcd;fill-opacity:1;stroke:none;stroke-width:1.78879"
     x="-15.264239"
     y="322.43912"
     id="text376"><tspan
       sodipodi:role="line"
       id="tspan374"
       x="-15.264239"
       y="322.43912"
       style="font-style:normal;font-variant:normal;font-weight:normal;font-stretch:normal;font-size:190.803px;font-family:Ubuntu;-inkscape-font-specification:Ubuntu;fill:#cdcdcd;fill-opacity:1;stroke-width:1.78879">randExtract</tspan></text></g></svg>
