<?xml version="1.0" encoding="UTF-8" standalone="no"?>
<!-- Uploaded to: SVG Repo, www.svgrepo.com, Generator: SVG Repo Mixer Tools -->

<svg
   version="1.1"
   id="Layer_1"
   viewBox="0 0 999.99815 324.72876"
   xml:space="preserve"
   sodipodi:docname="logo-gray.svg"
   inkscape:version="1.2.2 (b0a8486541, 2022-12-01)"
   width="999.99817"
   height="324.72876"
   inkscape:export-filename="logo.png"
   inkscape:export-xdpi="150"
   inkscape:export-ydpi="150"
   xmlns:inkscape="http://www.inkscape.org/namespaces/inkscape"
   xmlns:sodipodi="http://sodipodi.sourceforge.net/DTD/sodipodi-0.dtd"
   xmlns="http://www.w3.org/2000/svg"
   xmlns:svg="http://www.w3.org/2000/svg"><defs
   id="defs39">
	
	

	
	
	
	
	
</defs><sodipodi:namedview
   id="namedview37"
   pagecolor="#ffffff"
   bordercolor="#666666"
   borderopacity="1.0"
   inkscape:showpageshadow="2"
   inkscape:pageopacity="0"
   inkscape:pagecheckerboard="0"
   inkscape:deskcolor="#d1d1d1"
   showgrid="false"
   inkscape:zoom="0.9218804"
   inkscape:cx="396.47225"
   inkscape:cy="248.40532"
   inkscape:window-width="1834"
   inkscape:window-height="1087"
   inkscape:window-x="0"
   inkscape:window-y="0"
   inkscape:window-maximized="0"
   inkscape:current-layer="Layer_1"
   showguides="true"><sodipodi:guide
     position="657.52163,114.74853"
     orientation="1,0"
     id="guide319"
     inkscape:locked="false" /><sodipodi:guide
     position="396.28587,135.69756"
     orientation="1,0"
     id="guide321"
     inkscape:locked="false" /><sodipodi:guide
     position="479.39167,150.35277"
     orientation="0,-1"
     id="guide323"
     inkscape:locked="false" /></sodipodi:namedview>







<g
   id="g2552"><g
     id="g2534"><polygon
       style="fill:#666666;fill-opacity:1"
       points="21.328,309.338 490.653,309.338 373.325,117.331 138.656,117.331 "
       id="polygon2"
       transform="matrix(0.51086589,0,0,0.51086589,395.95992,-5.4458487)" /><rect
       x="466.79605"
       y="-2.2309912e-05"
       style="fill:#333333;fill-opacity:1;stroke-width:0.510866"
       width="119.8849"
       height="65.390831"
       id="rect12" /><path
       style="fill:#808080;stroke-width:0.510866;fill-opacity:1"
       d="m 657.52171,168.93215 c 0,3.00124 -2.44245,5.44379 -5.45197,5.44379 H 401.40371 c -3.00949,0 -5.44379,-2.44255 -5.44379,-5.44379 v -21.80791 c 0,-3.00136 2.4343,-5.44379 5.44379,-5.44379 h 250.66603 c 3.00952,0 5.45197,2.44243 5.45197,5.44379 z"
       id="path14" /><g
       id="g2519"><path
         style="fill:#333333;stroke-width:0.510866;fill-opacity:1"
         d="m 641.17401,158.02817 c 0,3.00134 -2.44245,5.44379 -5.45196,5.44379 -3.00951,0 -5.45196,-2.44245 -5.45196,-5.44379 0,-3.01717 2.44245,-5.44379 5.45196,-5.44379 3.00951,0 5.45196,2.42662 5.45196,5.44379 z"
         id="path16" /><path
         style="fill:#333333;stroke-width:0.510866;fill-opacity:1"
         d="m 423.20338,158.02817 c 0,3.00134 -2.44245,5.44379 -5.45196,5.44379 -3.00952,0 -5.44379,-2.44245 -5.44379,-5.44379 0,-3.01717 2.43479,-5.44379 5.44379,-5.44379 3.009,0 5.45196,2.42662 5.45196,5.44379 z"
         id="path18" /><g
         id="g2509"><path
           style="fill:#e5e5e5;stroke-width:0.510866;fill-opacity:1"
           d="m 553.98453,152.58438 c -3.00951,0 -5.45196,2.42662 -5.45196,5.44379 0,3.00134 2.44245,5.44379 5.45196,5.44379 3.00951,0 5.45196,-2.44245 5.45196,-5.44379 0,-3.01717 -2.44245,-5.44379 -5.45196,-5.44379 z"
           id="path22" /><path
           style="fill:#e5e5e5;stroke-width:0.510866;fill-opacity:1"
           d="m 575.78318,152.58438 c -3.00849,0 -5.45094,2.42662 -5.45094,5.44379 0,3.00134 2.44245,5.44379 5.45094,5.44379 3.00951,0 5.44379,-2.44245 5.44379,-5.44379 0,-3.01717 -2.43428,-5.44379 -5.44379,-5.44379 z"
           id="path24" /><path
           style="fill:#e5e5e5;stroke-width:0.510866;fill-opacity:1"
           d="m 477.69795,152.58438 c -3.00951,0 -5.45196,2.42662 -5.45196,5.44379 0,3.00134 2.44245,5.44379 5.45196,5.44379 3.00951,0 5.44379,-2.44245 5.44379,-5.44379 5.1e-4,-3.01717 -2.43428,-5.44379 -5.44379,-5.44379 z"
           id="path26" /><path
           style="fill:#e5e5e5;stroke-width:0.510866;fill-opacity:1"
           d="m 499.48945,152.58438 c -3.00951,0 -5.44379,2.42662 -5.44379,5.44379 0,3.00134 2.43479,5.44379 5.44379,5.44379 3.009,0 5.45196,-2.44245 5.45196,-5.44379 0,-3.01717 -2.44245,-5.44379 -5.45196,-5.44379 z"
           id="path28" /><path
           style="fill:#e5e5e5;stroke-width:0.510866;fill-opacity:1"
           d="m 532.18486,152.58438 h -10.89574 c -3.00951,0 -5.45196,2.42662 -5.45196,5.44379 0,3.00134 2.44245,5.44379 5.45196,5.44379 h 10.89574 c 3.00951,0 5.45196,-2.44245 5.45196,-5.44379 0,-3.01717 -2.44245,-5.44379 -5.45196,-5.44379 z"
           id="path30" /></g></g><path
       style="fill:#4d4d4d;stroke-width:0.510866;fill-opacity:1"
       d="m 592.13088,54.494569 h -130.7806 v 0 0 c -3.00961,0 -5.45203,2.434786 -5.45203,5.451953 0,3.001337 2.44242,5.443789 5.45203,5.443789 v 0 0 h 130.7806 c 3.00951,0 5.44379,-2.442452 5.44379,-5.443789 0,-3.017167 -2.43428,-5.451953 -5.44379,-5.451953 z"
       id="path34" /></g><text
     xml:space="preserve"
     style="font-style:normal;font-weight:normal;font-size:190.803px;line-height:1.25;font-family:sans-serif;fill:#333333;fill-opacity:1;stroke:none;stroke-width:1.78879"
     x="-15.264239"
     y="322.43912"
     id="text376"><tspan
       sodipodi:role="line"
       id="tspan374"
       x="-15.264239"
       y="322.43912"
       style="font-style:normal;font-variant:normal;font-weight:normal;font-stretch:normal;font-size:190.803px;font-family:Ubuntu;-inkscape-font-specification:Ubuntu;fill:#333333;fill-opacity:1;stroke-width:1.78879">randExtract</tspan></text></g></svg>
